<svg xmlns="http://www.w3.org/2000/svg" version="1.1" xmlns:xlink="http://www.w3.org/1999/xlink" width="512" height="512" x="0" y="0" viewBox="0 0 64 64" style="enable-background:new 0 0 512 512" xml:space="preserve" class=""><g><path d="M32 1a1 1 0 0 0-1 1v3.025A27.028 27.028 0 0 0 5.025 31H2a1 1 0 0 0-1 1A31 31 0 1 0 32 1Zm1 2.017A29.039 29.039 0 0 1 60.983 31H33ZM27 56.5a25.517 25.517 0 0 1-2-.5v-7h2Zm4 .478a25.313 25.313 0 0 1-2-.161V41h2ZM33 45h2v11.814c-.659.079-1.326.134-2 .161Zm4 4h2v7c-.657.192-1.322.364-2 .5Zm3-2h-3v-3a1 1 0 0 0-1-1h-3v-3a1 1 0 0 0-1-1h-4a1 1 0 0 0-1 1v7h-3a1 1 0 0 0-1 1v7.317a25.063 25.063 0 0 1-7.946-4.957L32 33.414 48.946 50.36A25.063 25.063 0 0 1 41 55.317V48a1 1 0 0 0-1-1Zm10.36 1.946L34.414 33h22.561a24.906 24.906 0 0 1-6.615 15.946ZM31 7.025v24.561l-17.36 17.36A24.98 24.98 0 0 1 31 7.025ZM32 61A29.036 29.036 0 0 1 3.017 33h2.008a26.993 26.993 0 0 0 53.95 0h2A29.031 29.031 0 0 1 32 61Z" fill="#bc2d75" opacity="1" data-original="#000000" class=""></path><path d="M46 18h2a3 3 0 0 0-3-3v-1h-2v1a3 3 0 0 0 0 6v2a1 1 0 0 1-1-1h-2a3 3 0 0 0 3 3v1h2v-1a3 3 0 0 0 0-6v-2a1 1 0 0 1 1 1Zm0 4a1 1 0 0 1-1 1v-2a1 1 0 0 1 1 1Zm-3-3a1 1 0 0 1 0-2ZM19 28h-2a3 3 0 0 0 3 3v1h2v-1a3 3 0 0 0 0-6v-2a1 1 0 0 1 1 1h2a3 3 0 0 0-3-3v-1h-2v1a3 3 0 0 0 0 6v2a1 1 0 0 1-1-1Zm0-4a1 1 0 0 1 1-1v2a1 1 0 0 1-1-1Zm3 3a1 1 0 0 1 0 2Z" fill="#bc2d75" opacity="1" data-original="#000000" class=""></path><path d="M44 11a9 9 0 1 0 9 9 9.01 9.01 0 0 0-9-9Zm0 16a7 7 0 1 1 7-7 7.008 7.008 0 0 1-7 7Z" fill="#bc2d75" opacity="1" data-original="#000000" class=""></path></g></svg>