<svg xmlns="http://www.w3.org/2000/svg" version="1.1" xmlns:xlink="http://www.w3.org/1999/xlink" width="512" height="512" x="0" y="0" viewBox="0 0 496 496" style="enable-background:new 0 0 512 512" xml:space="preserve" class=""><g><path d="M224 272h-16v-32h-16v80h16v-32h16v32h16v-80h-16zM280 240h-24v80h16v-32h8c4.411 0 8 3.589 8 8v24h16v-24c0-6.142-2.322-11.75-6.131-16 3.809-4.249 6.131-9.858 6.131-16 0-13.233-10.766-24-24-24zm-8 32v-16h8c4.411 0 8 3.589 8 8s-3.589 8-8 8z" fill="#bc2d75" opacity="1" data-original="#000000" class=""></path><path d="M248 176c-57.346 0-104 46.654-104 104s46.654 104 104 104 104-46.654 104-104-46.654-104-104-104zm0 192c-48.523 0-88-39.477-88-88s39.477-88 88-88 88 39.477 88 88-39.477 88-88 88z" fill="#bc2d75" opacity="1" data-original="#000000" class=""></path><path d="M384 344v8h112v-8c0-21.516-12.204-40.225-30.047-49.599C474.541 287.058 480 276.158 480 264c0-22.056-17.944-40-40-40s-40 17.944-40 40c0 2.739.278 5.414.805 8h-17.047c-1.62-27.795-11.625-53.373-27.519-74.24l6.72-5.76H464v-8c0-21.516-12.204-40.225-30.047-49.599C442.541 127.058 448 116.158 448 104c0-22.056-17.944-40-40-40s-40 17.944-40 40c0 12.158 5.459 23.058 14.047 30.401-16.782 8.817-28.561 25.894-29.904 45.797l-6.324 5.42c-23.017-23.847-54.643-39.325-89.82-41.376V128h48v-8c0-21.516-12.204-40.225-30.047-49.599C282.541 63.058 288 52.158 288 40c0-22.056-17.944-40-40-40s-40 17.944-40 40c0 12.158 5.459 23.058 14.047 30.401C204.204 79.775 192 98.484 192 120v8h48v16.242c-35.176 2.051-66.803 17.529-89.82 41.376l-6.324-5.42c-1.342-19.903-13.121-36.98-29.904-45.797C122.541 127.058 128 116.158 128 104c0-22.056-17.944-40-40-40s-40 17.944-40 40c0 12.158 5.459 23.058 14.047 30.401C44.204 143.775 32 162.484 32 184v8h101.041l6.72 5.76c-15.893 20.867-25.898 46.445-27.519 74.24H95.195c.527-2.586.805-5.261.805-8 0-22.056-17.944-40-40-40s-40 17.944-40 40c0 12.158 5.459 23.058 14.047 30.401C12.204 303.775 0 322.484 0 344v8h112v-8c0-21.516-12.204-40.225-30.047-49.599A40.315 40.315 0 0 0 87.978 288h24.264c1.671 28.661 12.252 54.967 29.015 76.178l-13.292 11.816A39.794 39.794 0 0 0 104 368c-22.056 0-40 17.944-40 40 0 12.158 5.459 23.058 14.047 30.401C60.204 447.775 48 466.484 48 488v8h112v-8c0-21.516-12.204-40.225-30.047-49.599C138.541 431.058 144 420.158 144 408a39.741 39.741 0 0 0-5.407-20.045l13.299-11.821c19.247 19.242 44.219 32.759 72.109 37.745V480c0 8.822 7.178 16 16 16h16c8.822 0 16-7.178 16-16v-66.121c27.89-4.986 52.862-18.503 72.109-37.745l13.299 11.821A39.722 39.722 0 0 0 352 408c0 12.158 5.459 23.058 14.047 30.401C348.204 447.775 336 466.484 336 488v8h112v-8c0-21.516-12.204-40.225-30.047-49.599C426.541 431.058 432 420.158 432 408c0-22.056-17.944-40-40-40a39.794 39.794 0 0 0-23.965 7.994l-13.292-11.816c16.763-21.211 27.344-47.518 29.015-76.178h24.264a40.401 40.401 0 0 0 6.025 6.401C396.204 303.775 384 322.484 384 344zm63.196-168H416v-31.187c15.648 3.191 28.007 15.538 31.196 31.187zM384 104c0-13.233 10.767-24 24-24s24 10.767 24 24-10.767 24-24 24-24-10.767-24-24zm16 40.813V176h-31.196c3.189-15.649 15.548-27.996 31.196-31.187zM287.196 112H256V80.813c15.648 3.191 28.007 15.538 31.196 31.187zM224 40c0-13.233 10.767-24 24-24s24 10.767 24 24-10.767 24-24 24-24-10.767-24-24zm-15.196 72c3.19-15.649 15.548-27.996 31.196-31.187V112zM64 104c0-13.233 10.767-24 24-24s24 10.767 24 24-10.767 24-24 24-24-10.767-24-24zm16 40.813V176H48.804c3.189-15.649 15.548-27.996 31.196-31.187zM96 176v-31.187c15.648 3.191 28.007 15.538 31.196 31.187zM48 304.813V336H16.804c3.189-15.649 15.548-27.996 31.196-31.187zM95.196 336H64v-31.187c15.648 3.191 28.007 15.538 31.196 31.187zM32 264c0-13.233 10.767-24 24-24s24 10.767 24 24-10.767 24-24 24-24-10.767-24-24zm64 184.813V480H64.804c3.189-15.649 15.548-27.996 31.196-31.187zM143.196 480H112v-31.187c15.648 3.191 28.007 15.538 31.196 31.187zM80 408c0-13.233 10.767-24 24-24s24 10.767 24 24-10.767 24-24 24-24-10.767-24-24zm176 72h-16v-64.242c2.648.155 5.314.242 8 .242s5.352-.087 8-.242zm128-31.187V480h-31.196c3.189-15.649 15.548-27.996 31.196-31.187zM431.196 480H400v-31.187c15.648 3.191 28.007 15.538 31.196 31.187zM392 384c13.233 0 24 10.767 24 24s-10.767 24-24 24-24-10.767-24-24 10.767-24 24-24zm-144 16c-66.168 0-120-53.832-120-120s53.832-120 120-120 120 53.832 120 120-53.832 120-120 120zm231.196-64H448v-31.187c15.648 3.191 28.007 15.538 31.196 31.187zM416 264c0-13.233 10.767-24 24-24s24 10.767 24 24-10.767 24-24 24-24-10.767-24-24zm16 40.813V336h-31.196c3.189-15.649 15.548-27.996 31.196-31.187z" fill="#bc2d75" opacity="1" data-original="#000000" class=""></path></g></svg>