<svg xmlns="http://www.w3.org/2000/svg" version="1.1" xmlns:xlink="http://www.w3.org/1999/xlink" width="512" height="512" x="0" y="0" viewBox="0 0 639 640" style="enable-background:new 0 0 512 512" xml:space="preserve" class=""><g><path d="M540.5 330v-20c5.52 0 10-4.477 10-10v-60c0-5.523-4.48-10-10-10h-54l-1.938-7.512a184.792 184.792 0 0 0-20.402-48.86l-4-6.69 38.34-38.407c3.86-3.867 3.86-10.133 0-14L456.031 72a10.145 10.145 0 0 0-14.004 0l-38.41 38.41-6.687-4A185.214 185.214 0 0 0 348.008 86l-7.508-1.953V30c0-5.523-4.477-10-10-10h-60c-5.523 0-10 4.477-10 10v54l-7.512 1.941a185.169 185.169 0 0 0-48.867 20.387l-6.691 4.004L159.03 72a10.143 10.143 0 0 0-14.05 0L102.5 114.469a9.93 9.93 0 0 0 0 14.063l38.41 38.405-4 6.692a184.782 184.782 0 0 0-20.398 48.86L114.55 230H60.5c-5.523 0-10 4.477-10 10v60c0 5.523 4.477 10 10 10v20c-16.566 0-30-13.434-30-30v-60c0-16.566 13.434-30 30-30h38.691a204.207 204.207 0 0 1 16.641-39.828l-27.5-27.5c-5.625-5.613-8.785-13.23-8.785-21.172s3.16-15.559 8.785-21.168l42.5-42.5c11.84-11.332 30.508-11.332 42.348 0l27.492 27.488A204.236 204.236 0 0 1 240.5 68.7V30c0-16.566 13.434-30 30-30h60c16.566 0 30 13.434 30 30v38.7a204.279 204.279 0 0 1 39.828 16.632l27.5-27.5c11.844-11.332 30.508-11.332 42.352 0l42.492 42.488a29.904 29.904 0 0 1 8.777 21.168 29.906 29.906 0 0 1-8.777 21.172l-27.5 27.5A204.978 204.978 0 0 1 501.809 210H540.5c16.566 0 30 13.434 30 30v60c0 16.566-13.434 30-30 30zm0 0" fill="#bc2d75" opacity="1" data-original="#000000" class=""></path><path d="M440.5 270h-20c0-66.273-53.727-120-120-120s-120 53.727-120 120h-20c0-77.32 62.68-140 140-140 77.316 0 140 62.68 140 140zm0 0" fill="#bc2d75" opacity="1" data-original="#000000" class=""></path><path d="M300.5 350c-33.137 0-60-26.867-60-60 0-33.137 26.863-60 60-60 33.14 0 60 26.863 60 60-.035 33.125-26.875 59.965-60 60zm0-100c-22.09 0-40 17.91-40 40s17.91 40 40 40 40-17.91 40-40-17.91-40-40-40zM470.5 390c-33.137 0-60-26.867-60-60 0-33.137 26.863-60 60-60s60 26.863 60 60c-.035 33.125-26.875 59.965-60 60zm0-100c-22.09 0-40 17.91-40 40s17.91 40 40 40 40-17.91 40-40-17.91-40-40-40zM130.5 390c-33.137 0-60-26.867-60-60 0-33.137 26.863-60 60-60 33.14 0 60 26.863 60 60-.035 33.125-26.875 59.965-60 60zm0-100c-22.09 0-40 17.91-40 40s17.91 40 40 40 40-17.91 40-40-17.91-40-40-40zm0 0" fill="#bc2d75" opacity="1" data-original="#000000" class=""></path><path d="M561.156 415.656A88.994 88.994 0 0 0 510.5 400h-80a89.489 89.489 0 0 0-14.512 1.316 89.735 89.735 0 0 0-24.488-25.41 38.789 38.789 0 0 0-4.61-2.996A89.3 89.3 0 0 0 340.5 360h-80a88.997 88.997 0 0 0-75.46 41.316A89.863 89.863 0 0 0 170.5 400h-80a88.996 88.996 0 0 0-50.629 15.637A90.001 90.001 0 0 0 .5 490v40c.035 27.305 15.922 52.102 40.723 63.54A67.79 67.79 0 0 0 70.5 600h100v-20h-90V470h-20v108.996a46.934 46.934 0 0 1-10.89-3.617A50.077 50.077 0 0 1 20.5 530v-40a70.071 70.071 0 0 1 30.66-57.863A69.17 69.17 0 0 1 90.5 420h80c1.762 0 3.46.188 5.18.305A89.994 89.994 0 0 0 170.5 450v100c.035 27.602 22.402 49.965 50 50h30V440h-20v140h-10c-16.566 0-30-13.434-30-30V450c0-38.664 31.344-70 70-70h80a69.875 69.875 0 0 1 36.45 10.29 24.986 24.986 0 0 1 2.917 1.866 70.838 70.838 0 0 1 22.422 25A69.844 69.844 0 0 1 410.5 450v100c0 16.566-13.434 30-30 30h-10V440h-20v160h30c27.602-.035 49.965-22.398 50-50V450a90.205 90.205 0 0 0-5.172-29.695c1.723-.118 3.422-.305 5.172-.305h80a69.215 69.215 0 0 1 39.367 12.156A70.086 70.086 0 0 1 580.5 490v40a50.07 50.07 0 0 1-29.277 45.457 45.986 45.986 0 0 1-10.723 3.54V470h-20v110h-90v20h100a67.628 67.628 0 0 0 29.11-6.383c24.882-11.402 40.85-36.246 40.89-63.617v-40a90 90 0 0 0-39.344-74.344zm0 0" fill="#bc2d75" opacity="1" data-original="#000000" class=""></path><path d="M260.5 580h80v20h-80zm0 0" fill="#bc2d75" opacity="1" data-original="#000000" class=""></path></g></svg>