<svg xmlns="http://www.w3.org/2000/svg" version="1.1" xmlns:xlink="http://www.w3.org/1999/xlink" width="512" height="512" x="0" y="0" viewBox="0 0 512 512" style="enable-background:new 0 0 512 512" xml:space="preserve" class=""><g><path d="M15.155 93.96a7.5 7.5 0 0 0 7.5-7.5V26.33c0-6.247 5.083-11.33 11.33-11.33h372.039c6.247 0 11.33 5.083 11.33 11.33v183.84c0 4.142 3.357 7.5 7.5 7.5s7.5-3.358 7.5-7.5V26.33c0-14.519-11.812-26.33-26.33-26.33H33.985C19.467 0 7.655 11.812 7.655 26.33v60.13a7.5 7.5 0 0 0 7.5 7.5zM408.71 342.513c0-21.461-17.464-38.92-38.93-38.92-21.461 0-38.92 17.459-38.92 38.92 0 21.466 17.459 38.93 38.92 38.93 21.466 0 38.93-17.464 38.93-38.93zm-62.85 0c0-13.19 10.73-23.92 23.92-23.92 13.195 0 23.93 10.73 23.93 23.92 0 13.195-10.734 23.93-23.93 23.93-13.189 0-23.92-10.735-23.92-23.93z" fill="#bc2d75" opacity="1" data-original="#000000" class=""></path><path d="M478.015 425H432.35v-12.009c9.382 3.349 20.134-.357 25.286-9.283l9.067-15.715a20.883 20.883 0 0 0 2.105-15.963 20.908 20.908 0 0 0-9.797-12.774l-8.22-4.749c.59-3.982.888-7.998.888-11.997s-.298-8.015-.888-11.997l8.222-4.75c10.037-5.802 13.487-18.691 7.692-28.731l-9.07-15.721c-5.151-8.923-15.896-12.631-25.281-9.284V245.15c0-4.142-3.357-7.5-7.5-7.5s-7.5 3.358-7.5 7.5v30.702a80.84 80.84 0 0 0-17.465-9.518v-9.474c0-11.596-9.434-21.03-21.029-21.03H360.7c-11.596 0-21.03 9.434-21.03 21.03v9.474a80.885 80.885 0 0 0-20.791 12.014l-8.218-4.748c-10.051-5.784-22.936-2.323-28.726 7.709l-9.082 15.723c-5.794 10.041-2.343 22.93 7.696 28.734l8.228 4.75c-.59 3.983-.888 8-.888 11.995s.298 8.011.888 11.995l-8.231 4.752c-10.042 5.805-13.492 18.696-7.69 28.734l9.078 15.718c5.793 10.035 18.68 13.495 28.738 7.705l8.207-4.742a80.914 80.914 0 0 0 20.791 12.014V425H105.985c-14.524 0-26.341 11.812-26.341 26.335l.011 16.585c0 15.625-12.435 28.667-27.755 29.074-.241.008-.484.006-.737.006-7.616-.008-14.775-2.972-20.155-8.344-5.386-5.386-8.353-12.544-8.353-20.156V121.44c0-4.142-3.357-7.5-7.5-7.5s-7.5 3.358-7.5 7.5V468.5c0 11.619 4.527 22.544 12.75 30.767 8.212 8.199 19.129 12.721 30.77 12.733h170.25c4.143 0 7.5-3.358 7.5-7.5s-3.357-7.5-7.5-7.5H83.707c6.8-7.803 10.948-18.016 10.948-29.085l-.011-16.585c0-6.248 5.088-11.33 11.341-11.33h372.029c6.247 0 11.33 5.083 11.33 11.33v17.17c0 7.609-2.965 14.769-8.34 20.153-5.391 5.383-12.55 8.347-20.16 8.347h-204.42c-4.143 0-7.5 3.358-7.5 7.5s3.357 7.5 7.5 7.5h204.42c11.612 0 22.536-4.522 30.768-12.741 8.211-8.224 12.732-19.147 12.732-30.759v-17.17c.001-14.518-11.811-26.33-26.329-26.33zm-60.665 0h-17.46v-6.314a80.832 80.832 0 0 0 17.46-9.514zm-67.9-18.745a66.317 66.317 0 0 1-24.688-14.267 7.499 7.499 0 0 0-8.805-.951l-12.779 7.384c-2.889 1.662-6.59.671-8.255-2.211l-9.081-15.722c-1.664-2.879-.672-6.577 2.207-8.242l12.8-7.39a7.5 7.5 0 0 0 3.579-8.086c-1.021-4.705-1.539-9.502-1.539-14.259s.518-9.554 1.539-14.259a7.5 7.5 0 0 0-3.579-8.086l-12.796-7.388a6.048 6.048 0 0 1-2.21-8.246l9.082-15.722c1.662-2.88 5.365-3.871 8.242-2.215l12.79 7.39a7.501 7.501 0 0 0 8.805-.951 66.31 66.31 0 0 1 24.688-14.267 7.5 7.5 0 0 0 5.22-7.145v-14.76a6.037 6.037 0 0 1 6.03-6.03h18.16a6.037 6.037 0 0 1 6.029 6.03v14.76a7.499 7.499 0 0 0 5.22 7.145 66.317 66.317 0 0 1 24.688 14.267 7.5 7.5 0 0 0 8.806.951l12.792-7.385c2.888-1.663 6.586-.671 8.249 2.21l9.071 15.721a6.047 6.047 0 0 1-2.207 8.247l-12.79 7.39a7.5 7.5 0 0 0-3.577 8.086c1.021 4.7 1.539 9.497 1.539 14.258s-.518 9.558-1.539 14.258a7.5 7.5 0 0 0 3.577 8.086l12.788 7.389a6.003 6.003 0 0 1 2.813 3.669 5.991 5.991 0 0 1-.605 4.58l-9.07 15.719a6.046 6.046 0 0 1-8.246 2.213l-12.795-7.387a7.5 7.5 0 0 0-8.806.951 66.31 66.31 0 0 1-24.688 14.267 7.5 7.5 0 0 0-5.22 7.145V425h-30.22v-11.6a7.497 7.497 0 0 0-5.219-7.145zM237.771 112.818c5.855-3.251 9.493-9.492 9.493-16.288V52.76c0-4.142-3.357-7.5-7.5-7.5s-7.5 3.358-7.5 7.5v43.77c0 1.35-.68 2.566-1.773 3.173-1.947 1.08-4.477-1.156-4.758-1.415a7.5 7.5 0 1 0-10.129 11.064c3.312 3.031 8.336 5.657 13.83 5.657 2.713.001 5.544-.641 8.337-2.191zM288.855 60.76c4.143 0 7.5-3.358 7.5-7.5s-3.357-7.5-7.5-7.5H265.99a7.5 7.5 0 0 0-7.5 7.5v54.265a7.5 7.5 0 0 0 7.5 7.5h22.865c4.143 0 7.5-3.358 7.5-7.5s-3.357-7.5-7.5-7.5H273.49V87.892h13.679c4.143 0 7.5-3.358 7.5-7.5s-3.357-7.5-7.5-7.5H273.49V60.76zM334.646 60.26c3.985 0 7.827 1.173 11.111 3.391a7.5 7.5 0 1 0 8.396-12.429 34.717 34.717 0 0 0-19.508-5.962c-19.234 0-34.883 15.648-34.883 34.883s15.648 34.883 34.883 34.883c7.705 0 14.626-2.537 20.018-7.337a29.376 29.376 0 0 0 2.98-3.075 7.5 7.5 0 1 0-11.496-9.635 14.406 14.406 0 0 1-1.461 1.509c-2.637 2.348-6.016 3.538-10.041 3.538-10.964 0-19.883-8.919-19.883-19.883s8.921-19.883 19.884-19.883zM408.938 52.76a7.5 7.5 0 0 0-7.5-7.5h-30.244c-4.143 0-7.5 3.358-7.5 7.5s3.357 7.5 7.5 7.5h7.562v47.265c0 4.142 3.357 7.5 7.5 7.5s7.5-3.358 7.5-7.5V60.26h7.683a7.5 7.5 0 0 0 7.499-7.5zM92.741 107.525c0 4.142 3.357 7.5 7.5 7.5s7.5-3.358 7.5-7.5V93.757l16.479 18.723a7.48 7.48 0 0 0 5.633 2.545 7.5 7.5 0 0 0 5.627-12.455l-13.253-15.058c8.795-2.964 15.124-11.04 15.124-20.519 0-11.984-10.11-21.733-22.538-21.733H100.26a7.5 7.5 0 0 0-7.5 7.524l-.019 54.741zm22.071-47.265c4.086 0 7.538 3.083 7.538 6.733s-3.452 6.733-7.538 6.733c-1.65 0-4.36.01-6.993.023-.013-2.557-.029-10.804-.037-13.489zM39.071 107.525c0 4.142 3.357 7.5 7.5 7.5s7.5-3.358 7.5-7.5V91.196c2.884-.014 5.933-.027 7.749-.027 12.824 0 23.257-10.298 23.257-22.955S74.645 45.26 61.82 45.26H46.571a7.501 7.501 0 0 0-7.5 7.523zM61.82 60.26c4.476 0 8.257 3.643 8.257 7.955s-3.781 7.955-8.257 7.955c-1.804 0-4.816.012-7.685.027-.015-2.975-.035-12.817-.043-15.936h7.728zM211.712 80.142c0-19.234-15.648-34.883-34.883-34.883s-34.883 15.648-34.883 34.883 15.648 34.883 34.883 34.883 34.883-15.648 34.883-34.883zm-54.766 0c0-10.963 8.919-19.883 19.883-19.883s19.883 8.919 19.883 19.883-8.919 19.883-19.883 19.883-19.883-8.919-19.883-19.883z" fill="#bc2d75" opacity="1" data-original="#000000" class=""></path><path d="M55.878 137.541a7.5 7.5 0 0 0 7.5 7.5h313.254c4.143 0 7.5-3.358 7.5-7.5s-3.357-7.5-7.5-7.5H63.378a7.499 7.499 0 0 0-7.5 7.5zM195.896 163.96H70.479c-15.766 0-28.592 12.827-28.592 28.593v67.553c0 15.766 12.826 28.593 28.592 28.593h125.416c15.767 0 28.593-12.827 28.593-28.593v-67.553c0-15.767-12.826-28.593-28.592-28.593zm13.592 96.146c0 7.495-6.098 13.593-13.593 13.593H70.479c-7.494 0-13.592-6.098-13.592-13.593v-67.553c0-7.495 6.098-13.593 13.592-13.593h125.416c7.495 0 13.593 6.098 13.593 13.593zM398.074 200.391a7.5 7.5 0 0 0-7.5-7.5H250.907c-4.143 0-7.5 3.358-7.5 7.5s3.357 7.5 7.5 7.5h139.667a7.5 7.5 0 0 0 7.5-7.5zM344.203 229.322a7.5 7.5 0 0 0-7.5-7.5h-85.796c-4.143 0-7.5 3.358-7.5 7.5s3.357 7.5 7.5 7.5h85.796a7.5 7.5 0 0 0 7.5-7.5zM41.888 315.117a7.5 7.5 0 0 0 7.5 7.5h201.52c4.143 0 7.5-3.358 7.5-7.5s-3.357-7.5-7.5-7.5H49.388a7.5 7.5 0 0 0-7.5 7.5zM258.407 372.98a7.5 7.5 0 0 0-7.5-7.5H49.388c-4.143 0-7.5 3.358-7.5 7.5s3.357 7.5 7.5 7.5h201.52a7.5 7.5 0 0 0 7.499-7.5zM49.388 395.24c-4.143 0-7.5 3.358-7.5 7.5s3.357 7.5 7.5 7.5h96.77c4.143 0 7.5-3.358 7.5-7.5s-3.357-7.5-7.5-7.5zM271.376 344.049a7.5 7.5 0 0 0-7.5-7.5H49.388c-4.143 0-7.5 3.358-7.5 7.5s3.357 7.5 7.5 7.5h214.488a7.5 7.5 0 0 0 7.5-7.5z" fill="#bc2d75" opacity="1" data-original="#000000" class=""></path><path d="M121.846 219.827h-46.78a7.5 7.5 0 0 0-7.5 7.5v29.929a7.5 7.5 0 0 0 7.5 7.5h46.779a7.5 7.5 0 0 0 7.5-7.5v-29.929a7.499 7.499 0 0 0-7.499-7.5zm-7.5 29.928h-31.78v-14.929h31.779v14.929zM191.309 192.226H144.53a7.5 7.5 0 0 0-7.5 7.5v57.53a7.5 7.5 0 0 0 7.5 7.5h46.779a7.5 7.5 0 0 0 7.5-7.5v-57.53a7.5 7.5 0 0 0-7.5-7.5zm-7.5 57.529H152.03v-42.53h31.779z" fill="#bc2d75" opacity="1" data-original="#000000" class=""></path></g></svg>