<svg xmlns="http://www.w3.org/2000/svg" version="1.1" xmlns:xlink="http://www.w3.org/1999/xlink" width="512" height="512" x="0" y="0" viewBox="0 0 511 511.997" style="enable-background:new 0 0 512 512" xml:space="preserve" class=""><g><path d="M452.707 267.48c-23.527-23.421-50.727-1.5-50.727-1.5v-123.3a7.499 7.499 0 1 0-14.996 0V276.53s-35.761 28.192-51.132 35.082V89.605c0-10.32 8.394-18.714 18.714-18.714h13.704c10.32 0 18.714 8.394 18.714 18.714v22.372c0 4.144 3.356 7.5 7.5 7.5a7.496 7.496 0 0 0 7.496-7.5V89.605c0-18.59-15.12-33.71-33.71-33.71h-13.704c-18.59 0-33.714 15.12-33.714 33.71V317.56a78.813 78.813 0 0 1-13.727 2.554V162c0-18.684-15.2-33.883-33.879-33.883h-13.371c-18.68 0-33.879 15.2-33.879 33.883v76.414l-13.73 7.29v-25.43c0-16.82-13.684-30.504-30.5-30.504H161.64c-16.82 0-30.5 13.683-30.5 30.503v68.493l-24.489 12.996-68.765 19.652c-11.965 3.418-21.957 11.254-28.13 22.059-6.175 10.808-7.85 23.394-4.718 35.437l7.691 29.594c1.04 4.008 5.133 6.41 9.145 5.371a7.502 7.502 0 0 0 5.371-9.148l-7.691-29.59c-4.461-17.164 5.402-34.43 22.457-39.301l62.87-17.969 47.255 126.117c3.164 8.446 2.664 32.54-22.332 41.418l-47.512 10.793c-16.559 3.758-32.875-6.168-37.148-22.605L35.5 436.477a7.505 7.505 0 0 0-9.145-5.375 7.504 7.504 0 0 0-5.375 9.148l9.649 37.117c5.422 20.852 23.945 34.63 44.566 34.63 15.153 0 57.934-11.97 57.934-11.97a46.217 46.217 0 0 0 34.988-54.621l164.375-40.242c13.594-3.332 26.5-9.789 37.313-18.676l79.992-65.726c24.387-21.63 10.082-46.145 2.91-53.282zM259.875 143.117h13.371c10.41 0 18.879 8.473 18.879 18.883v158.488l-47.324-.02c-4.348-.038-1.34-2.91-1.102-3.105l13.63-11.039c12.714-10.3 21.019-24.62 24.679-42.57 2.324-11.387-2.02-22.785-11.328-29.746-8.696-6.5-19.88-7.75-29.684-3.453V162c0-10.41 8.469-18.883 18.879-18.883zm-113.734 77.156c0-8.546 6.953-15.503 15.5-15.503h20.125c8.547 0 15.504 6.957 15.504 15.503v33.391l-51.133 27.14v-60.53zm294.136 88.903-79.996 65.726a79.408 79.408 0 0 1-31.355 15.692L163.34 431.137l-44.531-118.84 127.148-67.492c5.168-2.746 11.055-2.29 15.738 1.215 4.684 3.503 6.785 9.011 5.618 14.738-2.95 14.449-9.485 25.86-19.426 33.91l-13.63 11.043c-5.585 4.523-7.644 11.824-5.245 18.601 2.398 6.774 8.593 11.157 15.781 11.157l54.645.023h.039c19.453 0 38.148-5.914 54.062-17.105l61.07-42.946a21.122 21.122 0 0 1 27.368 2.524c4.207 4.297 12.441 17.066-1.7 31.21zm0 0" fill="#bc2d75" opacity="1" data-original="#000000" class=""></path><path d="M123.414 448.79c0-16.294-13.254-29.552-29.547-29.552S64.32 432.496 64.32 448.79c0 16.29 13.254 29.547 29.547 29.547s29.547-13.258 29.547-29.547zm-44.094 0c0-8.024 6.524-14.552 14.547-14.552 8.02 0 14.547 6.528 14.547 14.551 0 8.02-6.523 14.547-14.547 14.547-8.023 0-14.547-6.527-14.547-14.547zM39.934 235.48l109.023-109.863 24.523 12.684a23.065 23.065 0 0 0 26.602-3.871l59.344-57.125s-1.633 29.34 23.074 29.34c12.719 0 23.07-10.352 23.07-23.075v-60.5c0-.07-.004-.144-.004-.218C305.484 7.066 293.941 0 282.5 0h-59.973c-12.722 0-23.07 10.352-23.07 23.07 0 25.36 25.809 23.07 25.809 23.07L179.992 89.72l-24.879-12.867c-8.996-4.657-19.836-2.95-26.976 4.238L7.184 202.977c-8.961 9.03-8.907 23.668.125 32.628 4.351 4.317 19.21 13.29 32.625-.125zm-22.106-21.937L138.781 91.656c1.563-1.57 4.07-4.32 9.442-1.48l29.652 15.336a7.499 7.499 0 0 0 8.648-1.258l62.547-60.207a7.5 7.5 0 0 0-5.203-12.902h-21.34c-4.449 0-8.07-3.622-8.07-8.075 0-4.449 3.621-8.07 8.07-8.07H282.5c2.207 0 8.066 0 8.066 8.023 0 .067.004.133.004.204V83.57c0 4.45-3.62 8.07-8.07 8.07-4.453 0-8.074-3.62-8.074-8.07V59.676a7.496 7.496 0 0 0-12.7-5.402l-72.046 69.351a8.069 8.069 0 0 1-9.305 1.355l-29.414-15.214a7.505 7.505 0 0 0-8.77 1.379L29.29 224.915c-4.922 4.92-9.894 1.554-11.418.042-3.156-3.137-3.176-8.258-.043-11.414zm0 0" fill="#bc2d75" opacity="1" data-original="#000000" class=""></path></g></svg>